<svg xmlns="http://www.w3.org/2000/svg" xmlns:xlink="http://www.w3.org/1999/xlink" width="50" zoomAndPan="magnify" viewBox="0 0 37.5 37.499999" height="50" preserveAspectRatio="xMidYMid meet" version="1.0"><defs><clipPath id="9890463fc0"><path d="M 9 12 L 37 12 L 37 29.882812 L 9 29.882812 Z M 9 12 " clip-rule="nonzero"/></clipPath><clipPath id="18d4593104"><path d="M 0 6.9375 L 37 6.9375 L 37 29.882812 L 0 29.882812 Z M 0 6.9375 " clip-rule="nonzero"/></clipPath></defs><g clip-path="url(#9890463fc0)"><path fill="#005d7a" d="M 9.179688 26.933594 C 9.085938 27.121094 9.074219 27.316406 9.140625 27.519531 C 9.210938 27.71875 9.339844 27.867188 9.53125 27.960938 C 12.335938 29.339844 15.300781 30.023438 18.425781 30.019531 C 19.367188 30.007812 20.300781 29.933594 21.230469 29.796875 C 22.160156 29.660156 23.074219 29.460938 23.976562 29.203125 C 24.878906 28.945312 25.761719 28.625 26.621094 28.25 C 27.480469 27.871094 28.3125 27.441406 29.117188 26.953125 C 29.917969 26.464844 30.683594 25.925781 31.414062 25.335938 C 32.144531 24.746094 32.832031 24.109375 33.480469 23.425781 C 34.125 22.742188 34.722656 22.019531 35.269531 21.257812 C 35.820312 20.496094 36.316406 19.703125 36.757812 18.875 C 36.894531 18.625 36.894531 18.378906 36.757812 18.132812 C 35.722656 16.246094 34.4375 14.542969 32.910156 13.027344 C 32.761719 12.863281 32.574219 12.777344 32.355469 12.769531 C 32.132812 12.765625 31.941406 12.839844 31.785156 13 C 31.632812 13.15625 31.558594 13.347656 31.566406 13.570312 C 31.578125 13.789062 31.664062 13.972656 31.832031 14.121094 C 33.15625 15.429688 34.277344 16.890625 35.203125 18.503906 C 34.367188 20 33.351562 21.359375 32.15625 22.585938 C 30.960938 23.8125 29.625 24.867188 28.152344 25.742188 C 26.679688 26.617188 25.121094 27.289062 23.46875 27.753906 C 21.820312 28.21875 20.140625 28.460938 18.425781 28.484375 C 15.539062 28.488281 12.796875 27.855469 10.207031 26.582031 C 10.015625 26.488281 9.820312 26.476562 9.617188 26.542969 C 9.417969 26.613281 9.269531 26.742188 9.179688 26.933594 Z M 9.179688 26.933594 " fill-opacity="1" fill-rule="nonzero"/></g><path fill="#005d7a" d="M 18.425781 24.644531 C 18.816406 24.644531 19.203125 24.609375 19.585938 24.535156 C 19.96875 24.464844 20.34375 24.355469 20.703125 24.210938 C 21.066406 24.066406 21.414062 23.890625 21.742188 23.679688 C 22.070312 23.46875 22.375 23.230469 22.660156 22.960938 C 22.941406 22.695312 23.199219 22.402344 23.425781 22.085938 C 23.652344 21.769531 23.847656 21.433594 24.011719 21.078125 C 24.175781 20.722656 24.304688 20.359375 24.398438 19.980469 C 24.492188 19.601562 24.546875 19.214844 24.570312 18.828125 C 24.578125 18.617188 24.515625 18.429688 24.371094 18.273438 C 24.230469 18.117188 24.050781 18.03125 23.839844 18.019531 C 23.628906 18.003906 23.441406 18.066406 23.28125 18.210938 C 23.125 18.355469 23.039062 18.535156 23.035156 18.746094 C 23.015625 19.121094 22.949219 19.488281 22.839844 19.847656 C 22.734375 20.203125 22.582031 20.542969 22.390625 20.867188 C 22.199219 21.1875 21.96875 21.480469 21.707031 21.746094 C 21.441406 22.011719 21.152344 22.242188 20.832031 22.4375 C 20.511719 22.632812 20.171875 22.789062 19.816406 22.898438 C 19.457031 23.011719 19.09375 23.078125 18.71875 23.101562 C 18.34375 23.125 17.972656 23.105469 17.605469 23.035156 C 17.238281 22.96875 16.882812 22.859375 16.539062 22.703125 C 16.347656 22.609375 16.148438 22.597656 15.941406 22.671875 C 15.738281 22.742188 15.589844 22.878906 15.5 23.078125 C 15.414062 23.277344 15.40625 23.476562 15.488281 23.675781 C 15.566406 23.878906 15.707031 24.019531 15.910156 24.101562 C 16.710938 24.464844 17.546875 24.644531 18.425781 24.644531 Z M 18.425781 24.644531 " fill-opacity="1" fill-rule="nonzero"/><g clip-path="url(#18d4593104)"><path fill="#005d7a" d="M 35.6875 7.097656 L 29.941406 10.59375 C 28.25 9.421875 26.421875 8.527344 24.460938 7.914062 C 22.496094 7.296875 20.484375 6.988281 18.425781 6.988281 C 17.488281 7 16.554688 7.074219 15.625 7.210938 C 14.695312 7.347656 13.777344 7.542969 12.875 7.804688 C 11.972656 8.0625 11.089844 8.378906 10.230469 8.757812 C 9.371094 9.132812 8.539062 9.566406 7.738281 10.054688 C 6.933594 10.542969 6.167969 11.082031 5.4375 11.671875 C 4.707031 12.261719 4.019531 12.898438 3.375 13.582031 C 2.730469 14.261719 2.132812 14.984375 1.582031 15.746094 C 1.035156 16.507812 0.539062 17.304688 0.09375 18.132812 C -0.0390625 18.378906 -0.0390625 18.625 0.09375 18.875 C 1.503906 21.414062 3.335938 23.59375 5.597656 25.414062 L 0.367188 28.597656 C 0.222656 28.6875 0.117188 28.8125 0.0546875 28.972656 C -0.0078125 29.132812 -0.0195312 29.292969 0.0273438 29.460938 C 0.0742188 29.625 0.167969 29.761719 0.304688 29.863281 C 0.441406 29.96875 0.597656 30.019531 0.769531 30.019531 C 0.910156 30.019531 1.042969 29.984375 1.167969 29.90625 L 14.234375 21.957031 L 36.484375 8.410156 C 36.667969 8.300781 36.789062 8.144531 36.839844 7.933594 C 36.894531 7.726562 36.863281 7.53125 36.753906 7.347656 C 36.640625 7.164062 36.480469 7.050781 36.269531 7 C 36.0625 6.953125 35.867188 6.984375 35.6875 7.097656 Z M 14.1875 20.1875 C 13.984375 19.6875 13.871094 19.164062 13.851562 18.621094 C 13.832031 18.078125 13.90625 17.550781 14.078125 17.035156 C 14.246094 16.519531 14.5 16.050781 14.835938 15.625 C 15.175781 15.199219 15.574219 14.84375 16.039062 14.5625 C 16.503906 14.28125 17 14.085938 17.53125 13.984375 C 18.066406 13.878906 18.597656 13.871094 19.132812 13.957031 C 19.671875 14.042969 20.175781 14.21875 20.648438 14.484375 C 21.121094 14.75 21.53125 15.089844 21.882812 15.503906 Z M 23.234375 14.679688 C 23 14.390625 22.746094 14.125 22.464844 13.882812 C 22.1875 13.640625 21.886719 13.421875 21.570312 13.234375 C 21.25 13.046875 20.917969 12.886719 20.570312 12.757812 C 20.222656 12.628906 19.867188 12.53125 19.503906 12.46875 C 19.140625 12.402344 18.773438 12.371094 18.402344 12.375 C 18.03125 12.375 17.664062 12.410156 17.300781 12.480469 C 16.9375 12.550781 16.582031 12.648438 16.234375 12.78125 C 15.890625 12.914062 15.558594 13.078125 15.242188 13.269531 C 14.925781 13.460938 14.628906 13.679688 14.355469 13.925781 C 14.078125 14.171875 13.824219 14.441406 13.597656 14.734375 C 13.367188 15.027344 13.167969 15.335938 12.996094 15.664062 C 12.824219 15.992188 12.683594 16.332031 12.574219 16.6875 C 12.464844 17.039062 12.386719 17.398438 12.339844 17.765625 C 12.296875 18.132812 12.28125 18.503906 12.304688 18.871094 C 12.324219 19.242188 12.378906 19.605469 12.46875 19.96875 C 12.554688 20.328125 12.675781 20.675781 12.824219 21.015625 L 6.988281 24.566406 C 4.804688 22.902344 3.023438 20.882812 1.648438 18.503906 C 2.484375 17.007812 3.503906 15.648438 4.699219 14.417969 C 5.894531 13.191406 7.226562 12.140625 8.699219 11.265625 C 10.171875 10.386719 11.734375 9.71875 13.382812 9.253906 C 15.03125 8.789062 16.714844 8.542969 18.425781 8.523438 C 20.210938 8.523438 21.960938 8.773438 23.675781 9.277344 C 25.386719 9.777344 26.996094 10.511719 28.5 11.472656 Z M 23.234375 14.679688 " fill-opacity="1" fill-rule="nonzero"/></g></svg>