<svg xmlns="http://www.w3.org/2000/svg" xmlns:xlink="http://www.w3.org/1999/xlink" width="50" zoomAndPan="magnify" viewBox="0 0 37.5 37.499999" height="50" preserveAspectRatio="xMidYMid meet" version="1.0"><defs><clipPath id="3f49fd812b"><path d="M 0 5.296875 L 37 5.296875 L 37 31.941406 L 0 31.941406 Z M 0 5.296875 " clip-rule="nonzero"/></clipPath></defs><g clip-path="url(#3f49fd812b)"><path fill="#005d7a" d="M 18.503906 5.296875 C 11.527344 5.296875 5.003906 9.828125 0.136719 18.054688 C 0.0585938 18.183594 0.015625 18.335938 0.015625 18.503906 C 0.015625 18.667969 0.0585938 18.824219 0.140625 18.957031 L 0.136719 18.953125 C 5.003906 27.179688 11.527344 31.710938 18.503906 31.710938 C 25.476562 31.710938 32 27.179688 36.871094 18.953125 C 36.945312 18.824219 36.992188 18.667969 36.992188 18.503906 C 36.992188 18.335938 36.945312 18.183594 36.867188 18.050781 L 36.871094 18.054688 C 32.003906 9.828125 25.480469 5.296875 18.503906 5.296875 Z M 18.503906 29.949219 C 12.300781 29.949219 6.425781 25.886719 1.921875 18.503906 C 6.425781 11.117188 12.300781 7.058594 18.503906 7.058594 C 24.707031 7.058594 30.578125 11.117188 35.085938 18.503906 C 30.578125 25.886719 24.707031 29.949219 18.503906 29.949219 Z M 18.503906 12.339844 C 15.097656 12.339844 12.339844 15.097656 12.339844 18.503906 C 12.339844 21.90625 15.097656 24.667969 18.503906 24.667969 C 21.90625 24.667969 24.667969 21.90625 24.667969 18.503906 C 24.667969 15.097656 21.90625 12.339844 18.503906 12.339844 Z M 18.503906 22.90625 C 16.074219 22.90625 14.101562 20.933594 14.101562 18.503906 C 14.101562 16.074219 16.074219 14.101562 18.503906 14.101562 C 20.933594 14.101562 22.90625 16.074219 22.90625 18.503906 C 22.90625 20.933594 20.933594 22.90625 18.503906 22.90625 Z M 18.503906 22.90625 " fill-opacity="1" fill-rule="nonzero"/></g></svg>