<svg xmlns="http://www.w3.org/2000/svg" xmlns:xlink="http://www.w3.org/1999/xlink" width="50" zoomAndPan="magnify" viewBox="0 0 37.5 37.499999" height="50" preserveAspectRatio="xMidYMid meet" version="1.0"><defs><clipPath id="12251ea9ce"><path d="M 0 2.21875 L 37.007812 2.21875 L 37.007812 34.785156 L 0 34.785156 Z M 0 2.21875 " clip-rule="nonzero"/></clipPath></defs><g clip-path="url(#12251ea9ce)"><path fill="#005d7a" d="M 18.460938 2.261719 C 18.304688 2.277344 18.160156 2.351562 18.050781 2.460938 L 0.273438 20.238281 C 0.00390625 20.511719 0.0078125 20.949219 0.277344 21.214844 C 0.40625 21.34375 0.582031 21.414062 0.761719 21.417969 L 4.519531 21.417969 L 4.519531 34.058594 C 4.519531 34.441406 4.828125 34.746094 5.207031 34.75 L 31.875 34.75 C 32.253906 34.746094 32.5625 34.441406 32.5625 34.058594 L 32.5625 21.417969 L 36.316406 21.417969 C 36.699219 21.414062 37.007812 21.105469 37.007812 20.722656 C 37.003906 20.542969 36.933594 20.367188 36.808594 20.238281 L 32.472656 15.90625 L 32.472656 9.972656 C 32.472656 9.59375 32.164062 9.285156 31.785156 9.285156 L 28.851562 9.285156 C 28.472656 9.285156 28.164062 9.59375 28.164062 9.972656 L 28.164062 11.59375 L 19.027344 2.460938 C 18.878906 2.3125 18.671875 2.238281 18.460938 2.261719 Z M 18.460938 2.261719 " fill-opacity="1" fill-rule="nonzero"/></g></svg>