<svg xmlns="http://www.w3.org/2000/svg" xmlns:xlink="http://www.w3.org/1999/xlink" width="50" zoomAndPan="magnify" viewBox="0 0 37.5 37.499999" height="50" preserveAspectRatio="xMidYMid meet" version="1.0"><defs><clipPath id="edc25ef6f5"><path d="M 0 2.359375 L 37 2.359375 L 37 34.925781 L 0 34.925781 Z M 0 2.359375 " clip-rule="nonzero"/></clipPath></defs><g clip-path="url(#edc25ef6f5)"><path fill="#005d7a" d="M 4.515625 34.648438 C 3.816406 34.648438 3.140625 34.535156 2.5 34.3125 L 1.042969 33.808594 L 2.164062 32.75 C 3.644531 31.347656 4.019531 29.726562 4.042969 28.515625 C 1.480469 25.679688 0.0742188 22.136719 0.0742188 18.503906 C 0.0742188 9.601562 8.332031 2.359375 18.480469 2.359375 C 28.628906 2.359375 36.886719 9.601562 36.886719 18.503906 C 36.886719 27.40625 28.628906 34.644531 18.480469 34.644531 C 15.460938 34.644531 12.480469 33.992188 9.824219 32.746094 C 8.820312 33.457031 6.796875 34.648438 4.515625 34.648438 Z M 9.601562 30.550781 L 10.140625 30.820312 C 12.667969 32.097656 15.550781 32.773438 18.480469 32.773438 C 27.597656 32.773438 35.015625 26.371094 35.015625 18.503906 C 35.015625 10.632812 27.597656 4.230469 18.480469 4.230469 C 9.363281 4.230469 1.949219 10.632812 1.949219 18.503906 C 1.949219 21.773438 3.265625 24.972656 5.65625 27.503906 L 5.898438 27.765625 L 5.910156 28.117188 C 5.953125 29.390625 5.722656 31.117188 4.589844 32.773438 C 6.757812 32.738281 8.75 31.230469 9.132812 30.925781 Z M 9.601562 30.550781 " fill-opacity="1" fill-rule="nonzero"/></g><path fill="#005d7a" d="M 28.476562 18.503906 C 28.476562 18.765625 28.425781 19.015625 28.328125 19.257812 C 28.226562 19.496094 28.085938 19.710938 27.902344 19.894531 C 27.714844 20.078125 27.503906 20.222656 27.261719 20.320312 C 27.019531 20.421875 26.769531 20.472656 26.507812 20.472656 C 26.25 20.472656 25.996094 20.421875 25.757812 20.320312 C 25.515625 20.222656 25.300781 20.078125 25.117188 19.894531 C 24.933594 19.710938 24.789062 19.496094 24.691406 19.257812 C 24.589844 19.015625 24.542969 18.765625 24.542969 18.503906 C 24.542969 18.242188 24.589844 17.992188 24.691406 17.75 C 24.789062 17.507812 24.933594 17.296875 25.117188 17.113281 C 25.300781 16.925781 25.515625 16.785156 25.757812 16.683594 C 25.996094 16.585938 26.25 16.535156 26.507812 16.535156 C 26.769531 16.535156 27.019531 16.585938 27.261719 16.683594 C 27.503906 16.785156 27.714844 16.925781 27.902344 17.113281 C 28.085938 17.296875 28.226562 17.507812 28.328125 17.75 C 28.425781 17.992188 28.476562 18.242188 28.476562 18.503906 Z M 28.476562 18.503906 " fill-opacity="1" fill-rule="nonzero"/><path fill="#005d7a" d="M 20.449219 18.503906 C 20.449219 18.765625 20.402344 19.015625 20.300781 19.257812 C 20.199219 19.496094 20.058594 19.710938 19.875 19.894531 C 19.6875 20.078125 19.476562 20.222656 19.234375 20.320312 C 18.996094 20.421875 18.742188 20.472656 18.480469 20.472656 C 18.222656 20.472656 17.96875 20.421875 17.730469 20.320312 C 17.488281 20.222656 17.273438 20.078125 17.089844 19.894531 C 16.90625 19.710938 16.765625 19.496094 16.664062 19.257812 C 16.5625 19.015625 16.515625 18.765625 16.515625 18.503906 C 16.515625 18.242188 16.5625 17.992188 16.664062 17.75 C 16.765625 17.507812 16.90625 17.296875 17.089844 17.113281 C 17.273438 16.925781 17.488281 16.785156 17.730469 16.683594 C 17.96875 16.585938 18.222656 16.535156 18.480469 16.535156 C 18.742188 16.535156 18.996094 16.585938 19.234375 16.683594 C 19.476562 16.785156 19.6875 16.925781 19.875 17.113281 C 20.058594 17.296875 20.199219 17.507812 20.300781 17.75 C 20.402344 17.992188 20.449219 18.242188 20.449219 18.503906 Z M 20.449219 18.503906 " fill-opacity="1" fill-rule="nonzero"/><path fill="#005d7a" d="M 12.421875 18.503906 C 12.421875 18.765625 12.371094 19.015625 12.273438 19.257812 C 12.171875 19.496094 12.03125 19.710938 11.84375 19.894531 C 11.660156 20.078125 11.449219 20.222656 11.207031 20.320312 C 10.964844 20.421875 10.714844 20.472656 10.453125 20.472656 C 10.191406 20.472656 9.941406 20.421875 9.699219 20.320312 C 9.457031 20.222656 9.246094 20.078125 9.0625 19.894531 C 8.878906 19.710938 8.734375 19.496094 8.636719 19.257812 C 8.535156 19.015625 8.484375 18.765625 8.484375 18.503906 C 8.484375 18.242188 8.535156 17.992188 8.636719 17.75 C 8.734375 17.507812 8.878906 17.296875 9.0625 17.113281 C 9.246094 16.925781 9.457031 16.785156 9.699219 16.683594 C 9.941406 16.585938 10.191406 16.535156 10.453125 16.535156 C 10.714844 16.535156 10.964844 16.585938 11.207031 16.683594 C 11.449219 16.785156 11.660156 16.925781 11.84375 17.113281 C 12.03125 17.296875 12.171875 17.507812 12.273438 17.75 C 12.371094 17.992188 12.421875 18.242188 12.421875 18.503906 Z M 12.421875 18.503906 " fill-opacity="1" fill-rule="nonzero"/></svg>